name C:\Users\antoi\Documents\MyRepositories\predsim_tutorial\Results\Case_1\motion.mot
datacolumns 124
datarows 4
range 0.00000000 0.31701515
endheader 
time	pelvis_tilt	pelvis_list	pelvis_rotation	pelvis_tx	pelvis_ty	pelvis_tz	hip_flexion_l	hip_adduction_l	hip_rotation_l	hip_flexion_r	hip_adduction_r	hip_rotation_r	knee_angle_l	knee_angle_r	ankle_angle_l	ankle_angle_r	subtalar_angle_l	subtalar_angle_r	mtp_angle_l	mtp_angle_r	lumbar_extension	lumbar_bending	lumbar_rotation	arm_flex_l	arm_add_l	arm_rot_l	arm_flex_r	arm_add_r	arm_rot_r	elbow_flex_l	elbow_flex_r	glut_med1_l/activation	glut_med2_l/activation	glut_med3_l/activation	glut_min1_l/activation	glut_min2_l/activation	glut_min3_l/activation	semimem_l/activation	semiten_l/activation	bifemlh_l/activation	bifemsh_l/activation	sar_l/activation	add_long_l/activation	add_brev_l/activation	add_mag1_l/activation	add_mag2_l/activation	add_mag3_l/activation	tfl_l/activation	pect_l/activation	grac_l/activation	glut_max1_l/activation	glut_max2_l/activation	glut_max3_l/activation	iliacus_l/activation	psoas_l/activation	quad_fem_l/activation	gem_l/activation	peri_l/activation	rect_fem_l/activation	vas_med_l/activation	vas_int_l/activation	vas_lat_l/activation	med_gas_l/activation	lat_gas_l/activation	soleus_l/activation	tib_post_l/activation	flex_dig_l/activation	flex_hal_l/activation	tib_ant_l/activation	per_brev_l/activation	per_long_l/activation	per_tert_l/activation	ext_dig_l/activation	ext_hal_l/activation	ercspn_l/activation	intobl_l/activation	extobl_l/activation	glut_med1_r/activation	glut_med2_r/activation	glut_med3_r/activation	glut_min1_r/activation	glut_min2_r/activation	glut_min3_r/activation	semimem_r/activation	semiten_r/activation	bifemlh_r/activation	bifemsh_r/activation	sar_r/activation	add_long_r/activation	add_brev_r/activation	add_mag1_r/activation	add_mag2_r/activation	add_mag3_r/activation	tfl_r/activation	pect_r/activation	grac_r/activation	glut_max1_r/activation	glut_max2_r/activation	glut_max3_r/activation	iliacus_r/activation	psoas_r/activation	quad_fem_r/activation	gem_r/activation	peri_r/activation	rect_fem_r/activation	vas_med_r/activation	vas_int_r/activation	vas_lat_r/activation	med_gas_r/activation	lat_gas_r/activation	soleus_r/activation	tib_post_r/activation	flex_dig_r/activation	flex_hal_r/activation	tib_ant_r/activation	per_brev_r/activation	per_long_r/activation	per_tert_r/activation	ext_dig_r/activation	ext_hal_r/activation	ercspn_r/activation	intobl_r/activation	extobl_r/activation	
          0.00000000	         -7.53589464	         -2.43346324	          7.54487192	          0.00000000	          0.89362786	         -0.00905420	        -10.25943518	         -0.39533425	         12.78274413	         37.05279549	          2.01597195	          0.89767888	        -17.59037030	        -22.19735489	          3.35423879	         14.22830801	         -3.03926961	         -8.32670265	         35.92089565	          0.30752517	          2.64918184	          0.24697229	         -1.37136715	         -4.64206196	        -13.52273393	         16.44564429	         -7.37512173	        -14.17438019	         13.83309922	         88.87436265	          8.08720855	          0.20882844	          0.05000605	          0.05000171	          0.17736845	          0.09454276	          0.05699819	          0.05000320	          0.05000352	          0.05000225	          0.05000408	          0.05001755	          0.31502682	          0.10566778	          0.20920738	          0.13809758	          0.13806372	          0.20633200	          0.05004229	          0.05000883	          0.05001691	          0.05000877	          0.05002370	          0.58085487	          0.26655251	          0.05000309	          0.05001335	          0.05000284	          0.10536366	          0.11263785	          0.10275105	          0.10685386	          0.34076946	          0.52617255	          0.14580456	          0.45467703	          0.49134150	          0.46143205	          0.05000109	          0.05000144	          0.05000242	          0.05000226	          0.05000109	          0.05000336	          0.05000139	          0.05000075	          0.05000188	          0.19645953	          0.05002534	          0.71270841	          0.05003094	          0.05002315	          0.05004910	          0.05000070	          0.05000578	          0.05000128	          0.17778148	          0.05853582	          0.27084426	          0.57000538	          0.43025495	          0.32560812	          0.28096614	          0.05348426	          0.08209907	          0.29902889	          0.05002521	          0.18397743	          0.31079466	          0.10971530	          0.10584305	          0.18755712	          0.05006515	          0.72855450	          0.05000034	          0.05000141	          0.05000128	          0.05000094	          0.05000663	          0.05001559	          0.05000067	          0.05000749	          0.05000975	          0.05000708	          0.75045840	          0.48358199	          0.21643807	          0.41337719	          0.76534450	          0.37425063	          0.07302534	          0.09502390	          0.05000368	
          0.10567172	         -7.64980665	         -3.60887847	          8.61693512	          0.15700991	          0.88332314	         -0.00378624	         -4.31608273	         -2.61064559	          8.02688598	         32.50909627	          5.90984796	          2.76922250	        -42.69349918	        -31.75024748	         -2.13154646	         12.72414607	          4.69284739	        -12.46740921	         21.33092515	          0.51496472	          3.79651872	          2.58696836	         -1.67865527	         -6.39333201	        -13.52795281	         19.28674727	        -11.86882810	        -14.58429883	         12.42128135	         94.81058636	          6.18873406	          0.07563181	          0.05000503	          0.05000544	          0.06425449	          0.05003758	          0.05004101	          0.12782595	          0.15751864	          0.13806163	          0.07290346	          0.24232703	          0.31080360	          0.36033861	          0.07581163	          0.05002303	          0.05000382	          0.53326704	          0.50703586	          0.24383378	          0.05017169	          0.05004265	          0.05000221	          0.21037858	          0.21205492	          0.05004294	          0.05049491	          0.12394443	          0.05000060	          0.05000031	          0.05000028	          0.05000021	          0.12341411	          0.19056046	          0.05280497	          0.16466801	          0.17794949	          0.16711566	          0.05001544	          0.06985106	          0.05000692	          0.54057168	          0.88190826	          0.80157561	          0.16929142	          0.05388023	          0.05000242	          0.63729635	          0.53541474	          0.31786367	          0.07489415	          0.07886376	          0.10530101	          0.10961016	          0.14204565	          0.11621843	          0.06438804	          0.05000562	          0.09809301	          0.20643820	          0.15582731	          0.11793450	          0.20680304	          0.05000370	          0.05005395	          0.10831565	          0.45867973	          0.33822882	          0.18450096	          0.05000138	          0.05000139	          0.06794984	          0.05004395	          0.26385667	          0.05000142	          0.35236945	          0.49803316	          0.45791043	          0.05000629	          0.05000807	          0.05000160	          0.30989055	          0.13560171	          0.06088775	          0.58270493	          0.17513736	          0.07838715	          0.14972239	          0.27720414	          0.26827885	          0.05490907	          0.05000061	          0.05000131	
          0.21134343	         -7.79945867	         -2.55151678	          6.25870231	          0.29005915	          0.90231556	          0.00151155	         11.00398496	          0.38461569	          5.10146114	         21.72203466	          7.60723092	          7.59255437	        -59.06475518	        -28.70602970	          7.82757254	         15.70165152	          5.17883482	        -11.60179547	          5.44122765	          4.74247159	          3.25756868	          2.76873287	         -1.31576552	         -4.97366563	        -13.44979809	         18.86581726	         -5.30698420	        -13.58664124	         18.12150213	         76.05739427	          3.40255466	          0.05000836	          0.05000183	          0.05000091	          0.31446860	          0.05006003	          0.05000533	          0.05002705	          0.05704854	          0.05000154	          0.54990996	          0.26992719	          0.14265734	          0.30545829	          0.05001485	          0.05000748	          0.05000123	          0.62661703	          0.31427693	          0.38082416	          0.05000157	          0.05000065	          0.05000069	          0.11155945	          0.10847356	          0.05000238	          0.05000968	          0.05000157	          0.05000479	          0.05000052	          0.05000049	          0.05000038	          0.05000218	          0.06901494	          0.05000019	          0.05963682	          0.06444844	          0.06052444	          0.29700081	          0.09530620	          0.05001783	          0.56185395	          0.64997388	          0.75274064	          0.11263198	          0.05000100	          0.05000345	          0.57883866	          0.37262982	          0.38230418	          0.36726814	          0.30154810	          0.31608262	          0.09169243	          0.10738375	          0.07484624	          0.05000341	          0.05000536	          0.05000950	          0.07487446	          0.27059551	          0.37275948	          0.13964111	          0.05000682	          0.05005508	          0.05016811	          0.22209505	          0.12870144	          0.12441832	          0.05000163	          0.05000168	          0.05003286	          0.05002901	          0.09557026	          0.05000324	          0.22031740	          0.23715874	          0.19292939	          0.26693443	          0.27729742	          0.13744578	          0.36691199	          0.05006133	          0.05032625	          0.21103487	          0.16926207	          0.18141626	          0.05424296	          0.10039745	          0.09716835	          0.05955524	          0.05000512	          0.05000139	
          0.31701515	         -7.67818037	         -0.59780734	          1.72679902	          0.41355571	          0.91326137	          0.00628879	         27.92679960	          3.11879125	          2.95133463	         10.65648602	          6.59826308	         12.63983845	        -57.29405301	        -23.81871695	         16.86680941	         13.95817955	          0.74012164	         -9.80200432	          1.20916463	         13.12660315	          1.99991219	          2.04781067	         -0.53698755	         -1.31411568	        -13.56999453	         18.47396205	         -0.13639827	        -13.53422709	         14.88108051	         45.46129330	         21.99230111	          0.05000173	          0.05000243	          0.05000379	          0.11389148	          0.05000993	          0.05001072	          0.05000067	          0.05000093	          0.05000051	          0.22968298	          0.44617416	          0.22722222	          0.11064241	          0.05000555	          0.05000295	          0.05000087	          0.40775287	          0.21247150	          0.13792456	          0.05000232	          0.05000113	          0.05000079	          0.20471604	          0.22658760	          0.05012448	          0.33796947	          0.05009361	          0.05000236	          0.05000120	          0.05000113	          0.05000082	          0.05000108	          0.05000179	          0.05000031	          0.05000160	          0.05000771	          0.05000557	          0.45941522	          0.22698693	          0.10143624	          0.53606187	          0.46434991	          0.49652556	          0.08801833	          0.05001701	          0.05461449	          0.45796829	          0.36235847	          0.30291243	          0.45578108	          0.51889712	          0.43450493	          0.10641419	          0.05357310	          0.05091564	          0.05000644	          0.05001331	          0.05000453	          0.05000637	          0.09800667	          0.13500848	          0.10632762	          0.05000848	          0.05002190	          0.05001343	          0.15857365	          0.09822798	          0.07559606	          0.05000234	          0.05000240	          0.05000703	          0.05003568	          0.24730459	          0.05000751	          0.16215614	          0.16842987	          0.13295825	          0.40338421	          0.46505555	          0.14688678	          0.39960886	          0.16698079	          0.15927361	          0.07643172	          0.21567816	          0.22077237	          0.05009225	          0.05002713	          0.05004423	          0.05000141	          0.05000205	          0.05000154	
